<?xml version="1.0" encoding="UTF-8" standalone="no"?>
<!DOCTYPE svg PUBLIC "-//W3C//DTD SVG 1.1//EN"
 "http://www.w3.org/Graphics/SVG/1.1/DTD/svg11.dtd">
<!-- Generated by graphviz version 12.1.2 (0)
 -->
<!-- Title: G Pages: 1 -->
<svg width="940pt" height="400pt"
 viewBox="0.00 0.00 940.00 399.50" xmlns="http://www.w3.org/2000/svg" xmlns:xlink="http://www.w3.org/1999/xlink">
<g id="graph0" class="graph" transform="scale(1 1) rotate(0) translate(4 395.5)">
<title>G</title>
<polygon fill="#eeeeee" stroke="none" points="-4,4 -4,-395.5 936,-395.5 936,4 -4,4"/>
<g id="clust1" class="cluster">
<title>cluster_inputs</title>
<polygon fill="#eeeeee" stroke="black" stroke-dasharray="5,2" points="8,-305.25 8,-383.5 924,-383.5 924,-305.25 8,-305.25"/>
<text text-anchor="middle" x="857.88" y="-313.2" font-family="Times,serif" font-size="14.00">Workflow Inputs</text>
</g>
<g id="clust2" class="cluster">
<title>cluster_outputs</title>
<polygon fill="#eeeeee" stroke="black" stroke-dasharray="5,2" points="335,-8 335,-86.25 581,-86.25 581,-8 335,-8"/>
<text text-anchor="middle" x="508.88" y="-15.95" font-family="Times,serif" font-size="14.00">Workflow Outputs</text>
</g>
<!-- run_scaling -->
<g id="node1" class="node">
<title>run_scaling</title>
<polygon fill="#f3cea1" stroke="black" points="497.62,-260.75 497.62,-296.75 604.38,-296.75 604.38,-260.75 497.62,-260.75"/>
<text text-anchor="middle" x="551" y="-274.07" font-family="Times,serif" font-size="14.00">Run miniapp</text>
</g>
<!-- generate_table -->
<g id="node2" class="node">
<title>generate_table</title>
<polygon fill="lightgoldenrodyellow" stroke="black" points="329.12,-187.75 329.12,-223.75 522.88,-223.75 522.88,-187.75 329.12,-187.75"/>
<text text-anchor="middle" x="426" y="-201.07" font-family="Times,serif" font-size="14.00">Generate summary table</text>
</g>
<!-- run_scaling&#45;&gt;generate_table -->
<g id="edge1" class="edge">
<title>run_scaling&#45;&gt;generate_table</title>
<path fill="none" stroke="black" d="M520.42,-260.38C504.23,-251.18 484.13,-239.77 466.64,-229.83"/>
<polygon fill="black" stroke="black" points="468.44,-226.83 458.01,-224.93 464.98,-232.92 468.44,-226.83"/>
</g>
<!-- summary -->
<g id="node14" class="node">
<title>summary</title>
<polygon fill="#94ddf4" stroke="black" points="490.62,-41.75 490.62,-77.75 573.38,-77.75 573.38,-41.75 490.62,-41.75"/>
<text text-anchor="middle" x="532" y="-55.08" font-family="Times,serif" font-size="14.00">summary</text>
</g>
<!-- run_scaling&#45;&gt;summary -->
<g id="edge13" class="edge">
<title>run_scaling&#45;&gt;summary</title>
<path fill="none" stroke="black" d="M549.48,-260.36C546.22,-223.14 538.54,-135.44 534.53,-89.68"/>
<polygon fill="black" stroke="black" points="538.02,-89.39 533.66,-79.73 531.05,-90 538.02,-89.39"/>
</g>
<!-- plot_time -->
<g id="node3" class="node">
<title>plot_time</title>
<polygon fill="lightgoldenrodyellow" stroke="black" points="249.88,-114.75 249.88,-150.75 418.12,-150.75 418.12,-114.75 249.88,-114.75"/>
<text text-anchor="middle" x="334" y="-128.07" font-family="Times,serif" font-size="14.00">Plot simulation times</text>
</g>
<!-- generate_table&#45;&gt;plot_time -->
<g id="edge2" class="edge">
<title>generate_table&#45;&gt;plot_time</title>
<path fill="none" stroke="black" d="M403.73,-187.56C392.18,-178.65 377.87,-167.61 365.23,-157.85"/>
<polygon fill="black" stroke="black" points="367.64,-155.29 357.58,-151.95 363.36,-160.83 367.64,-155.29"/>
</g>
<!-- table -->
<g id="node15" class="node">
<title>table</title>
<polygon fill="#94ddf4" stroke="black" points="419,-41.75 419,-77.75 473,-77.75 473,-41.75 419,-41.75"/>
<text text-anchor="middle" x="446" y="-55.08" font-family="Times,serif" font-size="14.00">table</text>
</g>
<!-- generate_table&#45;&gt;table -->
<g id="edge14" class="edge">
<title>generate_table&#45;&gt;table</title>
<path fill="none" stroke="black" d="M428.41,-187.38C431.79,-163.05 437.97,-118.55 442.03,-89.31"/>
<polygon fill="black" stroke="black" points="445.46,-90.07 443.37,-79.68 438.53,-89.1 445.46,-90.07"/>
</g>
<!-- figure -->
<g id="node13" class="node">
<title>figure</title>
<polygon fill="#94ddf4" stroke="black" points="343,-41.75 343,-77.75 401,-77.75 401,-41.75 343,-41.75"/>
<text text-anchor="middle" x="372" y="-55.08" font-family="Times,serif" font-size="14.00">figure</text>
</g>
<!-- plot_time&#45;&gt;figure -->
<g id="edge12" class="edge">
<title>plot_time&#45;&gt;figure</title>
<path fill="none" stroke="black" d="M343.2,-114.56C347.49,-106.54 352.71,-96.8 357.51,-87.82"/>
<polygon fill="black" stroke="black" points="360.54,-89.58 362.17,-79.11 354.37,-86.28 360.54,-89.58"/>
</g>
<!-- script_plot -->
<g id="node4" class="node">
<title>script_plot</title>
<polygon fill="#94ddf4" stroke="black" points="16.12,-339 16.12,-375 107.88,-375 107.88,-339 16.12,-339"/>
<text text-anchor="middle" x="62" y="-352.32" font-family="Times,serif" font-size="14.00">script_plot</text>
</g>
<!-- script_plot&#45;&gt;plot_time -->
<g id="edge3" class="edge">
<title>script_plot&#45;&gt;plot_time</title>
<path fill="none" stroke="black" d="M80.02,-338.73C90.61,-328.74 104.36,-316.05 117,-305.25 180.81,-250.73 258.64,-190.72 301.6,-158.12"/>
<polygon fill="black" stroke="black" points="303.66,-160.95 309.52,-152.12 299.44,-155.37 303.66,-160.95"/>
</g>
<!-- executable -->
<g id="node5" class="node">
<title>executable</title>
<polygon fill="#94ddf4" stroke="black" points="126.38,-339 126.38,-375 219.62,-375 219.62,-339 126.38,-339"/>
<text text-anchor="middle" x="173" y="-352.32" font-family="Times,serif" font-size="14.00">executable</text>
</g>
<!-- executable&#45;&gt;run_scaling -->
<g id="edge4" class="edge">
<title>executable&#45;&gt;run_scaling</title>
<path fill="none" stroke="black" d="M186.69,-338.67C196.97,-327.03 212.14,-312.53 229,-305.25 273.59,-285.99 405.28,-281.12 485.77,-279.98"/>
<polygon fill="black" stroke="black" points="485.79,-283.48 495.74,-279.86 485.7,-276.49 485.79,-283.48"/>
</g>
<!-- meteo_type -->
<g id="node6" class="node">
<title>meteo_type</title>
<polygon fill="#94ddf4" stroke="black" points="237.75,-339 237.75,-375 336.25,-375 336.25,-339 237.75,-339"/>
<text text-anchor="middle" x="287" y="-352.32" font-family="Times,serif" font-size="14.00">meteo_type</text>
</g>
<!-- meteo_type&#45;&gt;run_scaling -->
<g id="edge5" class="edge">
<title>meteo_type&#45;&gt;run_scaling</title>
<path fill="none" stroke="black" d="M301.4,-338.9C312.16,-327.37 327.9,-312.91 345,-305.25 369.54,-294.26 435.46,-287.42 486.18,-283.62"/>
<polygon fill="black" stroke="black" points="486.17,-287.13 495.9,-282.92 485.67,-280.15 486.17,-287.13"/>
</g>
<!-- script_template -->
<g id="node7" class="node">
<title>script_template</title>
<polygon fill="#94ddf4" stroke="black" points="354.12,-339 354.12,-375 481.88,-375 481.88,-339 354.12,-339"/>
<text text-anchor="middle" x="418" y="-352.32" font-family="Times,serif" font-size="14.00">script_template</text>
</g>
<!-- script_template&#45;&gt;run_scaling -->
<g id="edge6" class="edge">
<title>script_template&#45;&gt;run_scaling</title>
<path fill="none" stroke="black" d="M440.56,-338.51C454.6,-328.09 473.3,-315.03 491,-305.25 492.89,-304.2 494.84,-303.17 496.82,-302.16"/>
<polygon fill="black" stroke="black" points="498.09,-305.43 505.55,-297.91 495.03,-299.13 498.09,-305.43"/>
</g>
<!-- source_type -->
<g id="node8" class="node">
<title>source_type</title>
<polygon fill="#94ddf4" stroke="black" points="500.25,-339 500.25,-375 601.75,-375 601.75,-339 500.25,-339"/>
<text text-anchor="middle" x="551" y="-352.32" font-family="Times,serif" font-size="14.00">source_type</text>
</g>
<!-- source_type&#45;&gt;run_scaling -->
<g id="edge7" class="edge">
<title>source_type&#45;&gt;run_scaling</title>
<path fill="none" stroke="black" d="M551,-338.7C551,-329.79 551,-318.7 551,-308.55"/>
<polygon fill="black" stroke="black" points="554.5,-308.76 551,-298.76 547.5,-308.76 554.5,-308.76"/>
</g>
<!-- template -->
<g id="node9" class="node">
<title>template</title>
<polygon fill="#94ddf4" stroke="black" points="620.12,-339 620.12,-375 699.88,-375 699.88,-339 620.12,-339"/>
<text text-anchor="middle" x="660" y="-352.32" font-family="Times,serif" font-size="14.00">template</text>
</g>
<!-- template&#45;&gt;run_scaling -->
<g id="edge8" class="edge">
<title>template&#45;&gt;run_scaling</title>
<path fill="none" stroke="black" d="M646.43,-338.74C637.31,-328.02 624.52,-314.55 611,-305.25 609.66,-304.33 608.28,-303.43 606.87,-302.55"/>
<polygon fill="black" stroke="black" points="608.97,-299.72 598.54,-297.86 605.54,-305.82 608.97,-299.72"/>
</g>
<!-- nx -->
<g id="node10" class="node">
<title>nx</title>
<polygon fill="#94ddf4" stroke="black" points="718,-339 718,-375 772,-375 772,-339 718,-339"/>
<text text-anchor="middle" x="744.62" y="-352.32" font-family="Times,serif" font-size="14.00">nx</text>
</g>
<!-- nx&#45;&gt;run_scaling -->
<g id="edge9" class="edge">
<title>nx&#45;&gt;run_scaling</title>
<path fill="none" stroke="black" d="M737.17,-338.61C731.13,-327.26 721.65,-313.13 709,-305.25 693.5,-295.6 652.28,-289.14 615.83,-285.13"/>
<polygon fill="black" stroke="black" points="616.52,-281.69 606.21,-284.13 615.8,-288.65 616.52,-281.69"/>
</g>
<!-- ny -->
<g id="node11" class="node">
<title>ny</title>
<polygon fill="#94ddf4" stroke="black" points="790,-339 790,-375 844,-375 844,-339 790,-339"/>
<text text-anchor="middle" x="816.62" y="-352.32" font-family="Times,serif" font-size="14.00">ny</text>
</g>
<!-- ny&#45;&gt;run_scaling -->
<g id="edge10" class="edge">
<title>ny&#45;&gt;run_scaling</title>
<path fill="none" stroke="black" d="M809.55,-338.91C803.58,-327.38 794.03,-312.92 781,-305.25 753.94,-289.32 674.16,-283.33 616.14,-281.09"/>
<polygon fill="black" stroke="black" points="616.48,-277.6 606.36,-280.74 616.23,-284.6 616.48,-277.6"/>
</g>
<!-- nz -->
<g id="node12" class="node">
<title>nz</title>
<polygon fill="#94ddf4" stroke="black" points="862,-339 862,-375 916,-375 916,-339 862,-339"/>
<text text-anchor="middle" x="888.75" y="-352.32" font-family="Times,serif" font-size="14.00">nz</text>
</g>
<!-- nz&#45;&gt;run_scaling -->
<g id="edge11" class="edge">
<title>nz&#45;&gt;run_scaling</title>
<path fill="none" stroke="black" d="M881.61,-338.8C875.67,-327.23 866.13,-312.75 853,-305.25 814,-282.97 692.69,-279.07 616.21,-278.94"/>
<polygon fill="black" stroke="black" points="616.31,-275.44 606.32,-278.94 616.32,-282.44 616.31,-275.44"/>
</g>
</g>
</svg>
