<?xml version="1.0" encoding="UTF-8" standalone="no"?>
<!DOCTYPE svg PUBLIC "-//W3C//DTD SVG 1.1//EN"
 "http://www.w3.org/Graphics/SVG/1.1/DTD/svg11.dtd">
<!-- Generated by graphviz version 12.1.2 (0)
 -->
<!-- Title: G Pages: 1 -->
<svg width="869pt" height="400pt"
 viewBox="0.00 0.00 869.00 399.50" xmlns="http://www.w3.org/2000/svg" xmlns:xlink="http://www.w3.org/1999/xlink">
<g id="graph0" class="graph" transform="scale(1 1) rotate(0) translate(4 395.5)">
<title>G</title>
<polygon fill="#eeeeee" stroke="none" points="-4,4 -4,-395.5 865,-395.5 865,4 -4,4"/>
<g id="clust1" class="cluster">
<title>cluster_inputs</title>
<polygon fill="#eeeeee" stroke="black" stroke-dasharray="5,2" points="8,-305.25 8,-383.5 853,-383.5 853,-305.25 8,-305.25"/>
<text text-anchor="middle" x="786.88" y="-313.2" font-family="Times,serif" font-size="14.00">Workflow Inputs</text>
</g>
<g id="clust2" class="cluster">
<title>cluster_outputs</title>
<polygon fill="#eeeeee" stroke="black" stroke-dasharray="5,2" points="264,-8 264,-86.25 510,-86.25 510,-8 264,-8"/>
<text text-anchor="middle" x="437.88" y="-15.95" font-family="Times,serif" font-size="14.00">Workflow Outputs</text>
</g>
<!-- run_scaling -->
<g id="node1" class="node">
<title>run_scaling</title>
<polygon fill="#f3cea1" stroke="black" points="426.62,-260.75 426.62,-296.75 533.38,-296.75 533.38,-260.75 426.62,-260.75"/>
<text text-anchor="middle" x="480" y="-274.07" font-family="Times,serif" font-size="14.00">Run miniapp</text>
</g>
<!-- generate_table -->
<g id="node2" class="node">
<title>generate_table</title>
<polygon fill="lightgoldenrodyellow" stroke="black" points="258.12,-187.75 258.12,-223.75 451.88,-223.75 451.88,-187.75 258.12,-187.75"/>
<text text-anchor="middle" x="355" y="-201.07" font-family="Times,serif" font-size="14.00">Generate summary table</text>
</g>
<!-- run_scaling&#45;&gt;generate_table -->
<g id="edge1" class="edge">
<title>run_scaling&#45;&gt;generate_table</title>
<path fill="none" stroke="black" d="M449.42,-260.38C433.23,-251.18 413.13,-239.77 395.64,-229.83"/>
<polygon fill="black" stroke="black" points="397.44,-226.83 387.01,-224.93 393.98,-232.92 397.44,-226.83"/>
</g>
<!-- summary -->
<g id="node14" class="node">
<title>summary</title>
<polygon fill="#94ddf4" stroke="black" points="419.62,-41.75 419.62,-77.75 502.38,-77.75 502.38,-41.75 419.62,-41.75"/>
<text text-anchor="middle" x="461" y="-55.08" font-family="Times,serif" font-size="14.00">summary</text>
</g>
<!-- run_scaling&#45;&gt;summary -->
<g id="edge13" class="edge">
<title>run_scaling&#45;&gt;summary</title>
<path fill="none" stroke="black" d="M478.48,-260.36C475.22,-223.14 467.54,-135.44 463.53,-89.68"/>
<polygon fill="black" stroke="black" points="467.02,-89.39 462.66,-79.73 460.05,-90 467.02,-89.39"/>
</g>
<!-- plot_time -->
<g id="node3" class="node">
<title>plot_time</title>
<polygon fill="lightgoldenrodyellow" stroke="black" points="178.88,-114.75 178.88,-150.75 347.12,-150.75 347.12,-114.75 178.88,-114.75"/>
<text text-anchor="middle" x="263" y="-128.07" font-family="Times,serif" font-size="14.00">Plot simulation times</text>
</g>
<!-- generate_table&#45;&gt;plot_time -->
<g id="edge2" class="edge">
<title>generate_table&#45;&gt;plot_time</title>
<path fill="none" stroke="black" d="M332.73,-187.56C321.18,-178.65 306.87,-167.61 294.23,-157.85"/>
<polygon fill="black" stroke="black" points="296.64,-155.29 286.58,-151.95 292.36,-160.83 296.64,-155.29"/>
</g>
<!-- table -->
<g id="node15" class="node">
<title>table</title>
<polygon fill="#94ddf4" stroke="black" points="348,-41.75 348,-77.75 402,-77.75 402,-41.75 348,-41.75"/>
<text text-anchor="middle" x="375" y="-55.08" font-family="Times,serif" font-size="14.00">table</text>
</g>
<!-- generate_table&#45;&gt;table -->
<g id="edge14" class="edge">
<title>generate_table&#45;&gt;table</title>
<path fill="none" stroke="black" d="M357.41,-187.38C360.79,-163.05 366.97,-118.55 371.03,-89.31"/>
<polygon fill="black" stroke="black" points="374.46,-90.07 372.37,-79.68 367.53,-89.1 374.46,-90.07"/>
</g>
<!-- figure -->
<g id="node13" class="node">
<title>figure</title>
<polygon fill="#94ddf4" stroke="black" points="272,-41.75 272,-77.75 330,-77.75 330,-41.75 272,-41.75"/>
<text text-anchor="middle" x="301" y="-55.08" font-family="Times,serif" font-size="14.00">figure</text>
</g>
<!-- plot_time&#45;&gt;figure -->
<g id="edge12" class="edge">
<title>plot_time&#45;&gt;figure</title>
<path fill="none" stroke="black" d="M272.2,-114.56C276.49,-106.54 281.71,-96.8 286.51,-87.82"/>
<polygon fill="black" stroke="black" points="289.54,-89.58 291.17,-79.11 283.37,-86.28 289.54,-89.58"/>
</g>
<!-- script_plot -->
<g id="node4" class="node">
<title>script_plot</title>
<polygon fill="#94ddf4" stroke="black" points="16.12,-339 16.12,-375 107.88,-375 107.88,-339 16.12,-339"/>
<text text-anchor="middle" x="62" y="-352.32" font-family="Times,serif" font-size="14.00">script_plot</text>
</g>
<!-- script_plot&#45;&gt;plot_time -->
<g id="edge3" class="edge">
<title>script_plot&#45;&gt;plot_time</title>
<path fill="none" stroke="black" d="M77.77,-338.56C113,-299.61 198.22,-205.38 239.63,-159.59"/>
<polygon fill="black" stroke="black" points="242.17,-162 246.29,-152.23 236.98,-157.3 242.17,-162"/>
</g>
<!-- executable -->
<g id="node5" class="node">
<title>executable</title>
<polygon fill="#94ddf4" stroke="black" points="126.38,-339 126.38,-375 219.62,-375 219.62,-339 126.38,-339"/>
<text text-anchor="middle" x="173" y="-352.32" font-family="Times,serif" font-size="14.00">executable</text>
</g>
<!-- executable&#45;&gt;run_scaling -->
<g id="edge4" class="edge">
<title>executable&#45;&gt;run_scaling</title>
<path fill="none" stroke="black" d="M186.74,-338.78C197.04,-327.2 212.22,-312.72 229,-305.25 261.16,-290.94 351.9,-284.54 414.97,-281.77"/>
<polygon fill="black" stroke="black" points="415.04,-285.27 424.89,-281.35 414.75,-278.27 415.04,-285.27"/>
</g>
<!-- meteo_type -->
<g id="node6" class="node">
<title>meteo_type</title>
<polygon fill="#94ddf4" stroke="black" points="237.75,-339 237.75,-375 336.25,-375 336.25,-339 237.75,-339"/>
<text text-anchor="middle" x="287" y="-352.32" font-family="Times,serif" font-size="14.00">meteo_type</text>
</g>
<!-- meteo_type&#45;&gt;run_scaling -->
<g id="edge5" class="edge">
<title>meteo_type&#45;&gt;run_scaling</title>
<path fill="none" stroke="black" d="M302.03,-338.74C312.84,-327.44 328.4,-313.33 345,-305.25 366.56,-294.76 392,-288.58 414.95,-284.94"/>
<polygon fill="black" stroke="black" points="415.44,-288.4 424.84,-283.52 414.45,-281.47 415.44,-288.4"/>
</g>
<!-- script -->
<g id="node7" class="node">
<title>script</title>
<polygon fill="#94ddf4" stroke="black" points="354.38,-339 354.38,-375 411.62,-375 411.62,-339 354.38,-339"/>
<text text-anchor="middle" x="383" y="-352.32" font-family="Times,serif" font-size="14.00">script</text>
</g>
<!-- script&#45;&gt;run_scaling -->
<g id="edge6" class="edge">
<title>script&#45;&gt;run_scaling</title>
<path fill="none" stroke="black" d="M392.41,-338.6C398.96,-327.82 408.56,-314.34 420,-305.25 420.81,-304.6 421.65,-303.97 422.5,-303.35"/>
<polygon fill="black" stroke="black" points="424.29,-306.36 430.84,-298.03 420.53,-300.45 424.29,-306.36"/>
</g>
<!-- source_type -->
<g id="node8" class="node">
<title>source_type</title>
<polygon fill="#94ddf4" stroke="black" points="429.25,-339 429.25,-375 530.75,-375 530.75,-339 429.25,-339"/>
<text text-anchor="middle" x="480" y="-352.32" font-family="Times,serif" font-size="14.00">source_type</text>
</g>
<!-- source_type&#45;&gt;run_scaling -->
<g id="edge7" class="edge">
<title>source_type&#45;&gt;run_scaling</title>
<path fill="none" stroke="black" d="M480,-338.7C480,-329.79 480,-318.7 480,-308.55"/>
<polygon fill="black" stroke="black" points="483.5,-308.76 480,-298.76 476.5,-308.76 483.5,-308.76"/>
</g>
<!-- template -->
<g id="node9" class="node">
<title>template</title>
<polygon fill="#94ddf4" stroke="black" points="549.12,-339 549.12,-375 628.88,-375 628.88,-339 549.12,-339"/>
<text text-anchor="middle" x="589" y="-352.32" font-family="Times,serif" font-size="14.00">template</text>
</g>
<!-- template&#45;&gt;run_scaling -->
<g id="edge8" class="edge">
<title>template&#45;&gt;run_scaling</title>
<path fill="none" stroke="black" d="M575.43,-338.74C566.31,-328.02 553.52,-314.55 540,-305.25 538.66,-304.33 537.28,-303.43 535.87,-302.55"/>
<polygon fill="black" stroke="black" points="537.97,-299.72 527.54,-297.86 534.54,-305.82 537.97,-299.72"/>
</g>
<!-- nx -->
<g id="node10" class="node">
<title>nx</title>
<polygon fill="#94ddf4" stroke="black" points="647,-339 647,-375 701,-375 701,-339 647,-339"/>
<text text-anchor="middle" x="673.62" y="-352.32" font-family="Times,serif" font-size="14.00">nx</text>
</g>
<!-- nx&#45;&gt;run_scaling -->
<g id="edge9" class="edge">
<title>nx&#45;&gt;run_scaling</title>
<path fill="none" stroke="black" d="M666.17,-338.61C660.13,-327.26 650.65,-313.13 638,-305.25 622.5,-295.6 581.28,-289.14 544.83,-285.13"/>
<polygon fill="black" stroke="black" points="545.52,-281.69 535.21,-284.13 544.8,-288.65 545.52,-281.69"/>
</g>
<!-- ny -->
<g id="node11" class="node">
<title>ny</title>
<polygon fill="#94ddf4" stroke="black" points="719,-339 719,-375 773,-375 773,-339 719,-339"/>
<text text-anchor="middle" x="745.62" y="-352.32" font-family="Times,serif" font-size="14.00">ny</text>
</g>
<!-- ny&#45;&gt;run_scaling -->
<g id="edge10" class="edge">
<title>ny&#45;&gt;run_scaling</title>
<path fill="none" stroke="black" d="M738.55,-338.91C732.58,-327.38 723.03,-312.92 710,-305.25 682.94,-289.32 603.16,-283.33 545.14,-281.09"/>
<polygon fill="black" stroke="black" points="545.48,-277.6 535.36,-280.74 545.23,-284.6 545.48,-277.6"/>
</g>
<!-- nz -->
<g id="node12" class="node">
<title>nz</title>
<polygon fill="#94ddf4" stroke="black" points="791,-339 791,-375 845,-375 845,-339 791,-339"/>
<text text-anchor="middle" x="817.75" y="-352.32" font-family="Times,serif" font-size="14.00">nz</text>
</g>
<!-- nz&#45;&gt;run_scaling -->
<g id="edge11" class="edge">
<title>nz&#45;&gt;run_scaling</title>
<path fill="none" stroke="black" d="M810.61,-338.8C804.67,-327.23 795.13,-312.75 782,-305.25 743,-282.97 621.69,-279.07 545.21,-278.94"/>
<polygon fill="black" stroke="black" points="545.31,-275.44 535.32,-278.94 545.32,-282.44 545.31,-275.44"/>
</g>
</g>
</svg>
