<?xml version="1.0" encoding="UTF-8" standalone="no"?>
<!DOCTYPE svg PUBLIC "-//W3C//DTD SVG 1.1//EN"
 "http://www.w3.org/Graphics/SVG/1.1/DTD/svg11.dtd">
<!-- Generated by graphviz version 12.1.2 (0)
 -->
<!-- Title: G Pages: 1 -->
<svg width="759pt" height="400pt"
 viewBox="0.00 0.00 759.00 399.50" xmlns="http://www.w3.org/2000/svg" xmlns:xlink="http://www.w3.org/1999/xlink">
<g id="graph0" class="graph" transform="scale(1 1) rotate(0) translate(4 395.5)">
<title>G</title>
<polygon fill="#eeeeee" stroke="none" points="-4,4 -4,-395.5 755,-395.5 755,4 -4,4"/>
<g id="clust1" class="cluster">
<title>cluster_inputs</title>
<polygon fill="#eeeeee" stroke="black" stroke-dasharray="5,2" points="8,-305.25 8,-383.5 743,-383.5 743,-305.25 8,-305.25"/>
<text text-anchor="middle" x="676.88" y="-313.2" font-family="Times,serif" font-size="14.00">Workflow Inputs</text>
</g>
<g id="clust2" class="cluster">
<title>cluster_outputs</title>
<polygon fill="#eeeeee" stroke="black" stroke-dasharray="5,2" points="250,-8 250,-86.25 667,-86.25 667,-8 250,-8"/>
<text text-anchor="middle" x="594.88" y="-15.95" font-family="Times,serif" font-size="14.00">Workflow Outputs</text>
</g>
<!-- miniapp_configure -->
<g id="node1" class="node">
<title>miniapp_configure</title>
<polygon fill="lightgoldenrodyellow" stroke="black" points="267.88,-260.75 267.88,-296.75 436.12,-296.75 436.12,-260.75 267.88,-260.75"/>
<text text-anchor="middle" x="352" y="-274.07" font-family="Times,serif" font-size="14.00">Set run configuration</text>
</g>
<!-- miniapp_runner -->
<g id="node2" class="node">
<title>miniapp_runner</title>
<polygon fill="lightgoldenrodyellow" stroke="black" points="491.62,-187.75 491.62,-223.75 598.38,-223.75 598.38,-187.75 491.62,-187.75"/>
<text text-anchor="middle" x="545" y="-201.07" font-family="Times,serif" font-size="14.00">Run miniapp</text>
</g>
<!-- miniapp_configure&#45;&gt;miniapp_runner -->
<g id="edge1" class="edge">
<title>miniapp_configure&#45;&gt;miniapp_runner</title>
<path fill="none" stroke="black" d="M399.21,-260.38C425.73,-250.63 459.04,-238.37 487.12,-228.04"/>
<polygon fill="black" stroke="black" points="488.01,-231.45 496.18,-224.71 485.59,-224.88 488.01,-231.45"/>
</g>
<!-- run_info -->
<g id="node3" class="node">
<title>run_info</title>
<polygon fill="#f3cea1" stroke="black" points="237.12,-114.75 237.12,-150.75 418.88,-150.75 418.88,-114.75 237.12,-114.75"/>
<text text-anchor="middle" x="328" y="-128.07" font-family="Times,serif" font-size="14.00">Report run information</text>
</g>
<!-- miniapp_runner&#45;&gt;run_info -->
<g id="edge2" class="edge">
<title>miniapp_runner&#45;&gt;run_info</title>
<path fill="none" stroke="black" d="M491.64,-187.29C461.55,-177.45 423.77,-165.08 392.08,-154.72"/>
<polygon fill="black" stroke="black" points="393.19,-151.4 382.59,-151.61 391.01,-158.05 393.19,-151.4"/>
</g>
<!-- logging -->
<g id="node12" class="node">
<title>logging</title>
<polygon fill="#94ddf4" stroke="black" points="510.38,-41.75 510.38,-77.75 579.62,-77.75 579.62,-41.75 510.38,-41.75"/>
<text text-anchor="middle" x="545" y="-55.08" font-family="Times,serif" font-size="14.00">logging</text>
</g>
<!-- miniapp_runner&#45;&gt;logging -->
<g id="edge16" class="edge">
<title>miniapp_runner&#45;&gt;logging</title>
<path fill="none" stroke="black" d="M545,-187.38C545,-163.05 545,-118.55 545,-89.31"/>
<polygon fill="black" stroke="black" points="548.5,-89.69 545,-79.69 541.5,-89.69 548.5,-89.69"/>
</g>
<!-- netcdf -->
<g id="node13" class="node">
<title>netcdf</title>
<polygon fill="#94ddf4" stroke="black" points="597.5,-41.75 597.5,-77.75 658.5,-77.75 658.5,-41.75 597.5,-41.75"/>
<text text-anchor="middle" x="628" y="-55.08" font-family="Times,serif" font-size="14.00">netcdf</text>
</g>
<!-- miniapp_runner&#45;&gt;netcdf -->
<g id="edge17" class="edge">
<title>miniapp_runner&#45;&gt;netcdf</title>
<path fill="none" stroke="black" d="M555.01,-187.38C569.22,-162.73 595.37,-117.35 612.21,-88.14"/>
<polygon fill="black" stroke="black" points="615.24,-89.9 617.2,-79.49 609.17,-86.41 615.24,-89.9"/>
</g>
<!-- stdout -->
<g id="node14" class="node">
<title>stdout</title>
<polygon fill="#94ddf4" stroke="black" points="430.12,-41.75 430.12,-77.75 491.88,-77.75 491.88,-41.75 430.12,-41.75"/>
<text text-anchor="middle" x="461" y="-55.08" font-family="Times,serif" font-size="14.00">stdout</text>
</g>
<!-- miniapp_runner&#45;&gt;stdout -->
<g id="edge18" class="edge">
<title>miniapp_runner&#45;&gt;stdout</title>
<path fill="none" stroke="black" d="M534.87,-187.38C520.43,-162.62 493.79,-116.96 476.76,-87.76"/>
<polygon fill="black" stroke="black" points="479.99,-86.36 471.93,-79.49 473.95,-89.89 479.99,-86.36"/>
</g>
<!-- summary -->
<g id="node15" class="node">
<title>summary</title>
<polygon fill="#94ddf4" stroke="black" points="329.62,-41.75 329.62,-77.75 412.38,-77.75 412.38,-41.75 329.62,-41.75"/>
<text text-anchor="middle" x="371" y="-55.08" font-family="Times,serif" font-size="14.00">summary</text>
</g>
<!-- run_info&#45;&gt;summary -->
<g id="edge19" class="edge">
<title>run_info&#45;&gt;summary</title>
<path fill="none" stroke="black" d="M338.41,-114.56C343.32,-106.45 349.3,-96.59 354.78,-87.53"/>
<polygon fill="black" stroke="black" points="357.72,-89.44 359.9,-79.07 351.73,-85.81 357.72,-89.44"/>
</g>
<!-- time -->
<g id="node16" class="node">
<title>time</title>
<polygon fill="#94ddf4" stroke="black" points="258,-41.75 258,-77.75 312,-77.75 312,-41.75 258,-41.75"/>
<text text-anchor="middle" x="284.62" y="-55.08" font-family="Times,serif" font-size="14.00">time</text>
</g>
<!-- run_info&#45;&gt;time -->
<g id="edge20" class="edge">
<title>run_info&#45;&gt;time</title>
<path fill="none" stroke="black" d="M317.59,-114.56C312.68,-106.45 306.7,-96.59 301.22,-87.53"/>
<polygon fill="black" stroke="black" points="304.27,-85.81 296.1,-79.07 298.28,-89.44 304.27,-85.81"/>
</g>
<!-- meteo_type -->
<g id="node4" class="node">
<title>meteo_type</title>
<polygon fill="#94ddf4" stroke="black" points="87.75,-339 87.75,-375 186.25,-375 186.25,-339 87.75,-339"/>
<text text-anchor="middle" x="137" y="-352.32" font-family="Times,serif" font-size="14.00">meteo_type</text>
</g>
<!-- meteo_type&#45;&gt;miniapp_configure -->
<g id="edge3" class="edge">
<title>meteo_type&#45;&gt;miniapp_configure</title>
<path fill="none" stroke="black" d="M151.43,-338.96C162.2,-327.46 177.95,-313 195,-305.25 219.09,-294.3 227.86,-301.35 254,-297.25 254.83,-297.12 255.67,-296.99 256.51,-296.85"/>
<polygon fill="black" stroke="black" points="256.77,-300.36 266.08,-295.3 255.65,-293.45 256.77,-300.36"/>
</g>
<!-- meteo_type&#45;&gt;run_info -->
<g id="edge4" class="edge">
<title>meteo_type&#45;&gt;run_info</title>
<path fill="none" stroke="black" d="M148.85,-338.95C170.96,-307.61 220.63,-239.28 269,-187.25 278.15,-177.4 288.87,-167.32 298.63,-158.6"/>
<polygon fill="black" stroke="black" points="300.92,-161.24 306.13,-152.02 296.3,-155.99 300.92,-161.24"/>
</g>
<!-- script -->
<g id="node5" class="node">
<title>script</title>
<polygon fill="#94ddf4" stroke="black" points="323.38,-339 323.38,-375 380.62,-375 380.62,-339 323.38,-339"/>
<text text-anchor="middle" x="352" y="-352.32" font-family="Times,serif" font-size="14.00">script</text>
</g>
<!-- script&#45;&gt;miniapp_configure -->
<g id="edge5" class="edge">
<title>script&#45;&gt;miniapp_configure</title>
<path fill="none" stroke="black" d="M352,-338.7C352,-329.79 352,-318.7 352,-308.55"/>
<polygon fill="black" stroke="black" points="355.5,-308.76 352,-298.76 348.5,-308.76 355.5,-308.76"/>
</g>
<!-- source_type -->
<g id="node6" class="node">
<title>source_type</title>
<polygon fill="#94ddf4" stroke="black" points="204.25,-339 204.25,-375 305.75,-375 305.75,-339 204.25,-339"/>
<text text-anchor="middle" x="255" y="-352.32" font-family="Times,serif" font-size="14.00">source_type</text>
</g>
<!-- source_type&#45;&gt;miniapp_configure -->
<g id="edge6" class="edge">
<title>source_type&#45;&gt;miniapp_configure</title>
<path fill="none" stroke="black" d="M273.92,-338.72C285.26,-328.61 300.13,-315.81 314,-305.25 314.66,-304.74 315.34,-304.24 316.02,-303.73"/>
<polygon fill="black" stroke="black" points="317.82,-306.74 323.91,-298.07 313.75,-301.05 317.82,-306.74"/>
</g>
<!-- source_type&#45;&gt;run_info -->
<g id="edge7" class="edge">
<title>source_type&#45;&gt;run_info</title>
<path fill="none" stroke="black" d="M253.4,-338.69C252.13,-319.22 251.62,-286.86 259,-260.25 269.28,-223.17 292.12,-184.98 308.71,-160.4"/>
<polygon fill="black" stroke="black" points="311.5,-162.52 314.3,-152.3 305.74,-158.54 311.5,-162.52"/>
</g>
<!-- template -->
<g id="node7" class="node">
<title>template</title>
<polygon fill="#94ddf4" stroke="black" points="399.12,-339 399.12,-375 478.88,-375 478.88,-339 399.12,-339"/>
<text text-anchor="middle" x="439" y="-352.32" font-family="Times,serif" font-size="14.00">template</text>
</g>
<!-- template&#45;&gt;miniapp_configure -->
<g id="edge8" class="edge">
<title>template&#45;&gt;miniapp_configure</title>
<path fill="none" stroke="black" d="M423.95,-338.65C414.65,-328.4 402.21,-315.47 390,-305.25 389.49,-304.82 388.96,-304.39 388.44,-303.96"/>
<polygon fill="black" stroke="black" points="390.78,-301.35 380.7,-298.1 386.55,-306.93 390.78,-301.35"/>
</g>
<!-- executable -->
<g id="node8" class="node">
<title>executable</title>
<polygon fill="#94ddf4" stroke="black" points="569.38,-339 569.38,-375 662.62,-375 662.62,-339 569.38,-339"/>
<text text-anchor="middle" x="616" y="-352.32" font-family="Times,serif" font-size="14.00">executable</text>
</g>
<!-- executable&#45;&gt;miniapp_runner -->
<g id="edge9" class="edge">
<title>executable&#45;&gt;miniapp_runner</title>
<path fill="none" stroke="black" d="M607.72,-338.59C595.53,-312.97 572.66,-264.89 558.16,-234.41"/>
<polygon fill="black" stroke="black" points="561.34,-232.95 553.88,-225.42 555.02,-235.95 561.34,-232.95"/>
</g>
<!-- nx -->
<g id="node9" class="node">
<title>nx</title>
<polygon fill="#94ddf4" stroke="black" points="497,-339 497,-375 551,-375 551,-339 497,-339"/>
<text text-anchor="middle" x="523.62" y="-352.32" font-family="Times,serif" font-size="14.00">nx</text>
</g>
<!-- nx&#45;&gt;miniapp_runner -->
<g id="edge10" class="edge">
<title>nx&#45;&gt;miniapp_runner</title>
<path fill="none" stroke="black" d="M526.45,-338.59C530.02,-313.2 536.7,-265.73 540.99,-235.22"/>
<polygon fill="black" stroke="black" points="544.43,-235.94 542.35,-225.55 537.5,-234.97 544.43,-235.94"/>
</g>
<!-- nx&#45;&gt;run_info -->
<g id="edge11" class="edge">
<title>nx&#45;&gt;run_info</title>
<path fill="none" stroke="black" d="M512.55,-338.66C505.74,-328.66 496.74,-315.97 488,-305.25 443.6,-250.78 386.35,-191.81 353.75,-159.16"/>
<polygon fill="black" stroke="black" points="356.26,-156.71 346.7,-152.13 351.31,-161.67 356.26,-156.71"/>
</g>
<!-- ny -->
<g id="node10" class="node">
<title>ny</title>
<polygon fill="#94ddf4" stroke="black" points="681,-339 681,-375 735,-375 735,-339 681,-339"/>
<text text-anchor="middle" x="707.62" y="-352.32" font-family="Times,serif" font-size="14.00">ny</text>
</g>
<!-- ny&#45;&gt;miniapp_runner -->
<g id="edge12" class="edge">
<title>ny&#45;&gt;miniapp_runner</title>
<path fill="none" stroke="black" d="M697.48,-338.59C690.85,-328.32 681.72,-315.39 672,-305.25 644.4,-276.45 608.03,-249.1 581.28,-230.56"/>
<polygon fill="black" stroke="black" points="583.38,-227.76 573.15,-225 579.43,-233.53 583.38,-227.76"/>
</g>
<!-- ny&#45;&gt;run_info -->
<g id="edge13" class="edge">
<title>ny&#45;&gt;run_info</title>
<path fill="none" stroke="black" d="M703.18,-338.58C692.45,-303.36 662.98,-223.92 607,-187.25 578.13,-168.34 497.43,-154.12 430.21,-145.11"/>
<polygon fill="black" stroke="black" points="430.99,-141.68 420.62,-143.85 430.08,-148.62 430.99,-141.68"/>
</g>
<!-- nz -->
<g id="node11" class="node">
<title>nz</title>
<polygon fill="#94ddf4" stroke="black" points="16,-339 16,-375 70,-375 70,-339 16,-339"/>
<text text-anchor="middle" x="42.75" y="-352.32" font-family="Times,serif" font-size="14.00">nz</text>
</g>
<!-- nz&#45;&gt;miniapp_runner -->
<g id="edge14" class="edge">
<title>nz&#45;&gt;miniapp_runner</title>
<path fill="none" stroke="black" d="M51.05,-338.95C57.19,-327.75 66.69,-313.66 79,-305.25 96.02,-293.62 238.86,-264.65 259,-260.25 334.53,-243.76 421.97,-227.86 480.08,-217.75"/>
<polygon fill="black" stroke="black" points="480.56,-221.22 489.81,-216.06 479.36,-214.32 480.56,-221.22"/>
</g>
<!-- nz&#45;&gt;run_info -->
<g id="edge15" class="edge">
<title>nz&#45;&gt;run_info</title>
<path fill="none" stroke="black" d="M53.47,-338.55C60.09,-328.26 69.22,-315.33 79,-305.25 141.52,-240.78 231.7,-185.88 284.63,-156.56"/>
<polygon fill="black" stroke="black" points="286.29,-159.64 293.38,-151.77 282.92,-153.5 286.29,-159.64"/>
</g>
</g>
</svg>
