<?xml version="1.0" encoding="UTF-8" standalone="no"?>
<!DOCTYPE svg PUBLIC "-//W3C//DTD SVG 1.1//EN"
 "http://www.w3.org/Graphics/SVG/1.1/DTD/svg11.dtd">
<!-- Generated by graphviz version 12.1.2 (0)
 -->
<!-- Title: G Pages: 1 -->
<svg width="771pt" height="400pt"
 viewBox="0.00 0.00 771.00 399.50" xmlns="http://www.w3.org/2000/svg" xmlns:xlink="http://www.w3.org/1999/xlink">
<g id="graph0" class="graph" transform="scale(1 1) rotate(0) translate(4 395.5)">
<title>G</title>
<polygon fill="#eeeeee" stroke="none" points="-4,4 -4,-395.5 767,-395.5 767,4 -4,4"/>
<g id="clust1" class="cluster">
<title>cluster_inputs</title>
<polygon fill="#eeeeee" stroke="black" stroke-dasharray="5,2" points="8,-305.25 8,-383.5 743,-383.5 743,-305.25 8,-305.25"/>
<text text-anchor="middle" x="676.88" y="-313.2" font-family="Times,serif" font-size="14.00">Workflow Inputs</text>
</g>
<g id="clust2" class="cluster">
<title>cluster_outputs</title>
<polygon fill="#eeeeee" stroke="black" stroke-dasharray="5,2" points="338,-8 338,-86.25 755,-86.25 755,-8 338,-8"/>
<text text-anchor="middle" x="682.88" y="-15.95" font-family="Times,serif" font-size="14.00">Workflow Outputs</text>
</g>
<!-- miniapp_configure -->
<g id="node1" class="node">
<title>miniapp_configure</title>
<polygon fill="lightgoldenrodyellow" stroke="black" points="173.88,-260.75 173.88,-296.75 342.12,-296.75 342.12,-260.75 173.88,-260.75"/>
<text text-anchor="middle" x="258" y="-274.07" font-family="Times,serif" font-size="14.00">Set run configuration</text>
</g>
<!-- miniapp_runner -->
<g id="node2" class="node">
<title>miniapp_runner</title>
<polygon fill="lightgoldenrodyellow" stroke="black" points="461.62,-187.75 461.62,-223.75 568.38,-223.75 568.38,-187.75 461.62,-187.75"/>
<text text-anchor="middle" x="515" y="-201.07" font-family="Times,serif" font-size="14.00">Run miniapp</text>
</g>
<!-- miniapp_configure&#45;&gt;miniapp_runner -->
<g id="edge1" class="edge">
<title>miniapp_configure&#45;&gt;miniapp_runner</title>
<path fill="none" stroke="black" d="M321.2,-260.29C360.46,-249.44 410.8,-235.54 450.33,-224.62"/>
<polygon fill="black" stroke="black" points="451.01,-228.06 459.72,-222.02 449.15,-221.31 451.01,-228.06"/>
</g>
<!-- run_info -->
<g id="node3" class="node">
<title>run_info</title>
<polygon fill="#f3cea1" stroke="black" points="543.12,-114.75 543.12,-150.75 724.88,-150.75 724.88,-114.75 543.12,-114.75"/>
<text text-anchor="middle" x="634" y="-128.07" font-family="Times,serif" font-size="14.00">Report run information</text>
</g>
<!-- miniapp_runner&#45;&gt;run_info -->
<g id="edge2" class="edge">
<title>miniapp_runner&#45;&gt;run_info</title>
<path fill="none" stroke="black" d="M544.11,-187.38C559.53,-178.18 578.66,-166.77 595.31,-156.83"/>
<polygon fill="black" stroke="black" points="596.68,-160.09 603.48,-151.96 593.1,-154.08 596.68,-160.09"/>
</g>
<!-- logging -->
<g id="node12" class="node">
<title>logging</title>
<polygon fill="#94ddf4" stroke="black" points="426.38,-41.75 426.38,-77.75 495.62,-77.75 495.62,-41.75 426.38,-41.75"/>
<text text-anchor="middle" x="461" y="-55.08" font-family="Times,serif" font-size="14.00">logging</text>
</g>
<!-- miniapp_runner&#45;&gt;logging -->
<g id="edge14" class="edge">
<title>miniapp_runner&#45;&gt;logging</title>
<path fill="none" stroke="black" d="M508.49,-187.38C499.32,-162.95 482.52,-118.15 471.56,-88.92"/>
<polygon fill="black" stroke="black" points="474.86,-87.73 468.07,-79.6 468.3,-90.19 474.86,-87.73"/>
</g>
<!-- netcdf -->
<g id="node13" class="node">
<title>netcdf</title>
<polygon fill="#94ddf4" stroke="black" points="513.5,-41.75 513.5,-77.75 574.5,-77.75 574.5,-41.75 513.5,-41.75"/>
<text text-anchor="middle" x="544" y="-55.08" font-family="Times,serif" font-size="14.00">netcdf</text>
</g>
<!-- miniapp_runner&#45;&gt;netcdf -->
<g id="edge15" class="edge">
<title>miniapp_runner&#45;&gt;netcdf</title>
<path fill="none" stroke="black" d="M518.5,-187.38C523.4,-163.05 532.36,-118.55 538.25,-89.31"/>
<polygon fill="black" stroke="black" points="541.65,-90.16 540.19,-79.67 534.79,-88.78 541.65,-90.16"/>
</g>
<!-- stdout -->
<g id="node14" class="node">
<title>stdout</title>
<polygon fill="#94ddf4" stroke="black" points="346.12,-41.75 346.12,-77.75 407.88,-77.75 407.88,-41.75 346.12,-41.75"/>
<text text-anchor="middle" x="377" y="-55.08" font-family="Times,serif" font-size="14.00">stdout</text>
</g>
<!-- miniapp_runner&#45;&gt;stdout -->
<g id="edge16" class="edge">
<title>miniapp_runner&#45;&gt;stdout</title>
<path fill="none" stroke="black" d="M498.35,-187.38C474.21,-162.19 429.33,-115.35 401.43,-86.25"/>
<polygon fill="black" stroke="black" points="404.2,-84.07 394.75,-79.27 399.14,-88.92 404.2,-84.07"/>
</g>
<!-- summary -->
<g id="node15" class="node">
<title>summary</title>
<polygon fill="#94ddf4" stroke="black" points="592.62,-41.75 592.62,-77.75 675.38,-77.75 675.38,-41.75 592.62,-41.75"/>
<text text-anchor="middle" x="634" y="-55.08" font-family="Times,serif" font-size="14.00">summary</text>
</g>
<!-- run_info&#45;&gt;summary -->
<g id="edge17" class="edge">
<title>run_info&#45;&gt;summary</title>
<path fill="none" stroke="black" d="M634,-114.56C634,-106.98 634,-97.85 634,-89.29"/>
<polygon fill="black" stroke="black" points="637.5,-89.29 634,-79.29 630.5,-89.29 637.5,-89.29"/>
</g>
<!-- time -->
<g id="node16" class="node">
<title>time</title>
<polygon fill="#94ddf4" stroke="black" points="693,-41.75 693,-77.75 747,-77.75 747,-41.75 693,-41.75"/>
<text text-anchor="middle" x="719.62" y="-55.08" font-family="Times,serif" font-size="14.00">time</text>
</g>
<!-- run_info&#45;&gt;time -->
<g id="edge18" class="edge">
<title>run_info&#45;&gt;time</title>
<path fill="none" stroke="black" d="M654.82,-114.56C665.51,-105.73 678.73,-94.82 690.46,-85.14"/>
<polygon fill="black" stroke="black" points="692.42,-88.05 697.91,-78.99 687.97,-82.66 692.42,-88.05"/>
</g>
<!-- meteo_type -->
<g id="node4" class="node">
<title>meteo_type</title>
<polygon fill="#94ddf4" stroke="black" points="15.75,-339 15.75,-375 114.25,-375 114.25,-339 15.75,-339"/>
<text text-anchor="middle" x="65" y="-352.32" font-family="Times,serif" font-size="14.00">meteo_type</text>
</g>
<!-- meteo_type&#45;&gt;miniapp_configure -->
<g id="edge3" class="edge">
<title>meteo_type&#45;&gt;miniapp_configure</title>
<path fill="none" stroke="black" d="M80.03,-338.74C90.84,-327.44 106.4,-313.33 123,-305.25 135.35,-299.24 148.98,-294.64 162.69,-291.13"/>
<polygon fill="black" stroke="black" points="163.27,-294.59 172.2,-288.88 161.67,-287.77 163.27,-294.59"/>
</g>
<!-- script -->
<g id="node5" class="node">
<title>script</title>
<polygon fill="#94ddf4" stroke="black" points="132.38,-339 132.38,-375 189.62,-375 189.62,-339 132.38,-339"/>
<text text-anchor="middle" x="161" y="-352.32" font-family="Times,serif" font-size="14.00">script</text>
</g>
<!-- script&#45;&gt;miniapp_configure -->
<g id="edge4" class="edge">
<title>script&#45;&gt;miniapp_configure</title>
<path fill="none" stroke="black" d="M170.41,-338.6C176.96,-327.82 186.56,-314.34 198,-305.25 198.81,-304.6 199.65,-303.97 200.5,-303.35"/>
<polygon fill="black" stroke="black" points="202.29,-306.36 208.84,-298.03 198.53,-300.45 202.29,-306.36"/>
</g>
<!-- source_type -->
<g id="node6" class="node">
<title>source_type</title>
<polygon fill="#94ddf4" stroke="black" points="207.25,-339 207.25,-375 308.75,-375 308.75,-339 207.25,-339"/>
<text text-anchor="middle" x="258" y="-352.32" font-family="Times,serif" font-size="14.00">source_type</text>
</g>
<!-- source_type&#45;&gt;miniapp_configure -->
<g id="edge5" class="edge">
<title>source_type&#45;&gt;miniapp_configure</title>
<path fill="none" stroke="black" d="M258,-338.7C258,-329.79 258,-318.7 258,-308.55"/>
<polygon fill="black" stroke="black" points="261.5,-308.76 258,-298.76 254.5,-308.76 261.5,-308.76"/>
</g>
<!-- template -->
<g id="node7" class="node">
<title>template</title>
<polygon fill="#94ddf4" stroke="black" points="327.12,-339 327.12,-375 406.88,-375 406.88,-339 327.12,-339"/>
<text text-anchor="middle" x="367" y="-352.32" font-family="Times,serif" font-size="14.00">template</text>
</g>
<!-- template&#45;&gt;miniapp_configure -->
<g id="edge6" class="edge">
<title>template&#45;&gt;miniapp_configure</title>
<path fill="none" stroke="black" d="M353.43,-338.74C344.31,-328.02 331.52,-314.55 318,-305.25 316.66,-304.33 315.28,-303.43 313.87,-302.55"/>
<polygon fill="black" stroke="black" points="315.97,-299.72 305.54,-297.86 312.54,-305.82 315.97,-299.72"/>
</g>
<!-- executable -->
<g id="node8" class="node">
<title>executable</title>
<polygon fill="#94ddf4" stroke="black" points="425.38,-339 425.38,-375 518.62,-375 518.62,-339 425.38,-339"/>
<text text-anchor="middle" x="472" y="-352.32" font-family="Times,serif" font-size="14.00">executable</text>
</g>
<!-- executable&#45;&gt;miniapp_runner -->
<g id="edge7" class="edge">
<title>executable&#45;&gt;miniapp_runner</title>
<path fill="none" stroke="black" d="M477.02,-338.59C484.36,-313.09 498.13,-265.31 506.92,-234.81"/>
<polygon fill="black" stroke="black" points="510.19,-236.08 509.6,-225.51 503.46,-234.15 510.19,-236.08"/>
</g>
<!-- nx -->
<g id="node9" class="node">
<title>nx</title>
<polygon fill="#94ddf4" stroke="black" points="609,-339 609,-375 663,-375 663,-339 609,-339"/>
<text text-anchor="middle" x="635.62" y="-352.32" font-family="Times,serif" font-size="14.00">nx</text>
</g>
<!-- nx&#45;&gt;miniapp_runner -->
<g id="edge8" class="edge">
<title>nx&#45;&gt;miniapp_runner</title>
<path fill="none" stroke="black" d="M624.39,-338.79C617.53,-328.82 608.53,-316.14 600,-305.25 580.07,-279.81 555.87,-252.03 538.39,-232.48"/>
<polygon fill="black" stroke="black" points="541.17,-230.34 531.89,-225.24 535.96,-235.02 541.17,-230.34"/>
</g>
<!-- nx&#45;&gt;run_info -->
<g id="edge9" class="edge">
<title>nx&#45;&gt;run_info</title>
<path fill="none" stroke="black" d="M635.84,-338.56C635.5,-300.42 634.68,-209.28 634.26,-162.51"/>
<polygon fill="black" stroke="black" points="637.76,-162.59 634.17,-152.62 630.76,-162.65 637.76,-162.59"/>
</g>
<!-- ny -->
<g id="node10" class="node">
<title>ny</title>
<polygon fill="#94ddf4" stroke="black" points="681,-339 681,-375 735,-375 735,-339 681,-339"/>
<text text-anchor="middle" x="707.62" y="-352.32" font-family="Times,serif" font-size="14.00">ny</text>
</g>
<!-- ny&#45;&gt;miniapp_runner -->
<g id="edge10" class="edge">
<title>ny&#45;&gt;miniapp_runner</title>
<path fill="none" stroke="black" d="M698.14,-338.71C691.61,-328.23 682.36,-315.04 672,-305.25 638.83,-273.91 594.22,-247.06 561.04,-229.35"/>
<polygon fill="black" stroke="black" points="562.95,-226.4 552.47,-224.85 559.7,-232.6 562.95,-226.4"/>
</g>
<!-- ny&#45;&gt;run_info -->
<g id="edge11" class="edge">
<title>ny&#45;&gt;run_info</title>
<path fill="none" stroke="black" d="M702.19,-338.56C689.44,-300.26 658.89,-208.51 643.38,-161.92"/>
<polygon fill="black" stroke="black" points="646.74,-160.93 640.26,-152.54 640.1,-163.14 646.74,-160.93"/>
</g>
<!-- nz -->
<g id="node11" class="node">
<title>nz</title>
<polygon fill="#94ddf4" stroke="black" points="537,-339 537,-375 591,-375 591,-339 537,-339"/>
<text text-anchor="middle" x="563.75" y="-352.32" font-family="Times,serif" font-size="14.00">nz</text>
</g>
<!-- nz&#45;&gt;miniapp_runner -->
<g id="edge12" class="edge">
<title>nz&#45;&gt;miniapp_runner</title>
<path fill="none" stroke="black" d="M557.55,-338.59C553.29,-326.93 547.66,-311.23 543,-297.25 536.09,-276.52 528.81,-252.92 523.4,-235.02"/>
<polygon fill="black" stroke="black" points="526.81,-234.19 520.58,-225.62 520.1,-236.2 526.81,-234.19"/>
</g>
<!-- nz&#45;&gt;run_info -->
<g id="edge13" class="edge">
<title>nz&#45;&gt;run_info</title>
<path fill="none" stroke="black" d="M569.49,-338.56C581.56,-300.26 610.45,-208.51 625.13,-161.92"/>
<polygon fill="black" stroke="black" points="628.41,-163.14 628.08,-152.55 621.74,-161.04 628.41,-163.14"/>
</g>
</g>
</svg>
